G04 #@! TF.GenerationSoftware,KiCad,Pcbnew,5.0.2-bee76a0~70~ubuntu18.04.1*
G04 #@! TF.CreationDate,2019-02-02T20:08:38+01:00*
G04 #@! TF.ProjectId,CHPLX12,4348504c-5831-4322-9e6b-696361645f70,rev?*
G04 #@! TF.SameCoordinates,Original*
G04 #@! TF.FileFunction,Soldermask,Bot*
G04 #@! TF.FilePolarity,Negative*
%FSLAX46Y46*%
G04 Gerber Fmt 4.6, Leading zero omitted, Abs format (unit mm)*
G04 Created by KiCad (PCBNEW 5.0.2-bee76a0~70~ubuntu18.04.1) date 2019. febr. 2., szombat, 20:08:38 CET*
%MOMM*%
%LPD*%
G01*
G04 APERTURE LIST*
%ADD10C,0.100000*%
G04 APERTURE END LIST*
D10*
G36*
X143177214Y-78433818D02*
X143357231Y-78488426D01*
X143523137Y-78577104D01*
X143668554Y-78696446D01*
X143787896Y-78841863D01*
X143876574Y-79007769D01*
X143931182Y-79187786D01*
X143949620Y-79375000D01*
X143931182Y-79562214D01*
X143876574Y-79742231D01*
X143787896Y-79908137D01*
X143668554Y-80053554D01*
X143523137Y-80172896D01*
X143357231Y-80261574D01*
X143177214Y-80316182D01*
X143036911Y-80330000D01*
X141443089Y-80330000D01*
X141302786Y-80316182D01*
X141122769Y-80261574D01*
X140956863Y-80172896D01*
X140811446Y-80053554D01*
X140692104Y-79908137D01*
X140603426Y-79742231D01*
X140548818Y-79562214D01*
X140530380Y-79375000D01*
X140548818Y-79187786D01*
X140603426Y-79007769D01*
X140692104Y-78841863D01*
X140811446Y-78696446D01*
X140956863Y-78577104D01*
X141122769Y-78488426D01*
X141302786Y-78433818D01*
X141443089Y-78420000D01*
X143036911Y-78420000D01*
X143177214Y-78433818D01*
X143177214Y-78433818D01*
G37*
G36*
X136720000Y-77885000D02*
X135420000Y-77885000D01*
X135420000Y-75785000D01*
X136720000Y-75785000D01*
X136720000Y-77885000D01*
X136720000Y-77885000D01*
G37*
G36*
X133820000Y-77885000D02*
X132520000Y-77885000D01*
X132520000Y-75785000D01*
X133820000Y-75785000D01*
X133820000Y-77885000D01*
X133820000Y-77885000D01*
G37*
G36*
X143177214Y-75893818D02*
X143357231Y-75948426D01*
X143523137Y-76037104D01*
X143668554Y-76156446D01*
X143787896Y-76301863D01*
X143876574Y-76467769D01*
X143931182Y-76647786D01*
X143949620Y-76835000D01*
X143931182Y-77022214D01*
X143876574Y-77202231D01*
X143787896Y-77368137D01*
X143668554Y-77513554D01*
X143523137Y-77632896D01*
X143357231Y-77721574D01*
X143177214Y-77776182D01*
X143036911Y-77790000D01*
X141443089Y-77790000D01*
X141302786Y-77776182D01*
X141122769Y-77721574D01*
X140956863Y-77632896D01*
X140811446Y-77513554D01*
X140692104Y-77368137D01*
X140603426Y-77202231D01*
X140548818Y-77022214D01*
X140530380Y-76835000D01*
X140548818Y-76647786D01*
X140603426Y-76467769D01*
X140692104Y-76301863D01*
X140811446Y-76156446D01*
X140956863Y-76037104D01*
X141122769Y-75948426D01*
X141302786Y-75893818D01*
X141443089Y-75880000D01*
X143036911Y-75880000D01*
X143177214Y-75893818D01*
X143177214Y-75893818D01*
G37*
G36*
X53170000Y-77300000D02*
X50970000Y-77300000D01*
X50970000Y-75100000D01*
X53170000Y-75100000D01*
X53170000Y-77300000D01*
X53170000Y-77300000D01*
G37*
G36*
X129370000Y-77300000D02*
X127170000Y-77300000D01*
X127170000Y-75100000D01*
X129370000Y-75100000D01*
X129370000Y-77300000D01*
X129370000Y-77300000D01*
G37*
G36*
X98890000Y-77300000D02*
X96690000Y-77300000D01*
X96690000Y-75100000D01*
X98890000Y-75100000D01*
X98890000Y-77300000D01*
X98890000Y-77300000D01*
G37*
G36*
X120970857Y-75142272D02*
X121171042Y-75225191D01*
X121351213Y-75345578D01*
X121504422Y-75498787D01*
X121504424Y-75498790D01*
X121504425Y-75498791D01*
X121624807Y-75678955D01*
X121624809Y-75678958D01*
X121707728Y-75879143D01*
X121750000Y-76091658D01*
X121750000Y-76308342D01*
X121707728Y-76520857D01*
X121624809Y-76721042D01*
X121624807Y-76721045D01*
X121548665Y-76835000D01*
X121504422Y-76901213D01*
X121351213Y-77054422D01*
X121171042Y-77174809D01*
X120970857Y-77257728D01*
X120758342Y-77300000D01*
X120541658Y-77300000D01*
X120329143Y-77257728D01*
X120128958Y-77174809D01*
X119948787Y-77054422D01*
X119795578Y-76901213D01*
X119751336Y-76835000D01*
X119675193Y-76721045D01*
X119675191Y-76721042D01*
X119592272Y-76520857D01*
X119550000Y-76308342D01*
X119550000Y-76091658D01*
X119592272Y-75879143D01*
X119675191Y-75678958D01*
X119675193Y-75678955D01*
X119795575Y-75498791D01*
X119795576Y-75498790D01*
X119795578Y-75498787D01*
X119948787Y-75345578D01*
X120128958Y-75225191D01*
X120329143Y-75142272D01*
X120541658Y-75100000D01*
X120758342Y-75100000D01*
X120970857Y-75142272D01*
X120970857Y-75142272D01*
G37*
G36*
X113350857Y-75142272D02*
X113551042Y-75225191D01*
X113731213Y-75345578D01*
X113884422Y-75498787D01*
X113884424Y-75498790D01*
X113884425Y-75498791D01*
X114004807Y-75678955D01*
X114004809Y-75678958D01*
X114087728Y-75879143D01*
X114130000Y-76091658D01*
X114130000Y-76308342D01*
X114087728Y-76520857D01*
X114004809Y-76721042D01*
X114004807Y-76721045D01*
X113928665Y-76835000D01*
X113884422Y-76901213D01*
X113731213Y-77054422D01*
X113551042Y-77174809D01*
X113350857Y-77257728D01*
X113138342Y-77300000D01*
X112921658Y-77300000D01*
X112709143Y-77257728D01*
X112508958Y-77174809D01*
X112328787Y-77054422D01*
X112175578Y-76901213D01*
X112131336Y-76835000D01*
X112055193Y-76721045D01*
X112055191Y-76721042D01*
X111972272Y-76520857D01*
X111930000Y-76308342D01*
X111930000Y-76091658D01*
X111972272Y-75879143D01*
X112055191Y-75678958D01*
X112055193Y-75678955D01*
X112175575Y-75498791D01*
X112175576Y-75498790D01*
X112175578Y-75498787D01*
X112328787Y-75345578D01*
X112508958Y-75225191D01*
X112709143Y-75142272D01*
X112921658Y-75100000D01*
X113138342Y-75100000D01*
X113350857Y-75142272D01*
X113350857Y-75142272D01*
G37*
G36*
X106510000Y-77300000D02*
X104310000Y-77300000D01*
X104310000Y-75100000D01*
X106510000Y-75100000D01*
X106510000Y-77300000D01*
X106510000Y-77300000D01*
G37*
G36*
X90490857Y-75142272D02*
X90691042Y-75225191D01*
X90871213Y-75345578D01*
X91024422Y-75498787D01*
X91024424Y-75498790D01*
X91024425Y-75498791D01*
X91144807Y-75678955D01*
X91144809Y-75678958D01*
X91227728Y-75879143D01*
X91270000Y-76091658D01*
X91270000Y-76308342D01*
X91227728Y-76520857D01*
X91144809Y-76721042D01*
X91144807Y-76721045D01*
X91068665Y-76835000D01*
X91024422Y-76901213D01*
X90871213Y-77054422D01*
X90691042Y-77174809D01*
X90490857Y-77257728D01*
X90278342Y-77300000D01*
X90061658Y-77300000D01*
X89849143Y-77257728D01*
X89648958Y-77174809D01*
X89468787Y-77054422D01*
X89315578Y-76901213D01*
X89271336Y-76835000D01*
X89195193Y-76721045D01*
X89195191Y-76721042D01*
X89112272Y-76520857D01*
X89070000Y-76308342D01*
X89070000Y-76091658D01*
X89112272Y-75879143D01*
X89195191Y-75678958D01*
X89195193Y-75678955D01*
X89315575Y-75498791D01*
X89315576Y-75498790D01*
X89315578Y-75498787D01*
X89468787Y-75345578D01*
X89648958Y-75225191D01*
X89849143Y-75142272D01*
X90061658Y-75100000D01*
X90278342Y-75100000D01*
X90490857Y-75142272D01*
X90490857Y-75142272D01*
G37*
G36*
X83650000Y-77300000D02*
X81450000Y-77300000D01*
X81450000Y-75100000D01*
X83650000Y-75100000D01*
X83650000Y-77300000D01*
X83650000Y-77300000D01*
G37*
G36*
X75250857Y-75142272D02*
X75451042Y-75225191D01*
X75631213Y-75345578D01*
X75784422Y-75498787D01*
X75784424Y-75498790D01*
X75784425Y-75498791D01*
X75904807Y-75678955D01*
X75904809Y-75678958D01*
X75987728Y-75879143D01*
X76030000Y-76091658D01*
X76030000Y-76308342D01*
X75987728Y-76520857D01*
X75904809Y-76721042D01*
X75904807Y-76721045D01*
X75828665Y-76835000D01*
X75784422Y-76901213D01*
X75631213Y-77054422D01*
X75451042Y-77174809D01*
X75250857Y-77257728D01*
X75038342Y-77300000D01*
X74821658Y-77300000D01*
X74609143Y-77257728D01*
X74408958Y-77174809D01*
X74228787Y-77054422D01*
X74075578Y-76901213D01*
X74031336Y-76835000D01*
X73955193Y-76721045D01*
X73955191Y-76721042D01*
X73872272Y-76520857D01*
X73830000Y-76308342D01*
X73830000Y-76091658D01*
X73872272Y-75879143D01*
X73955191Y-75678958D01*
X73955193Y-75678955D01*
X74075575Y-75498791D01*
X74075576Y-75498790D01*
X74075578Y-75498787D01*
X74228787Y-75345578D01*
X74408958Y-75225191D01*
X74609143Y-75142272D01*
X74821658Y-75100000D01*
X75038342Y-75100000D01*
X75250857Y-75142272D01*
X75250857Y-75142272D01*
G37*
G36*
X68410000Y-77300000D02*
X66210000Y-77300000D01*
X66210000Y-75100000D01*
X68410000Y-75100000D01*
X68410000Y-77300000D01*
X68410000Y-77300000D01*
G37*
G36*
X60010857Y-75142272D02*
X60211042Y-75225191D01*
X60391213Y-75345578D01*
X60544422Y-75498787D01*
X60544424Y-75498790D01*
X60544425Y-75498791D01*
X60664807Y-75678955D01*
X60664809Y-75678958D01*
X60747728Y-75879143D01*
X60790000Y-76091658D01*
X60790000Y-76308342D01*
X60747728Y-76520857D01*
X60664809Y-76721042D01*
X60664807Y-76721045D01*
X60588665Y-76835000D01*
X60544422Y-76901213D01*
X60391213Y-77054422D01*
X60211042Y-77174809D01*
X60010857Y-77257728D01*
X59798342Y-77300000D01*
X59581658Y-77300000D01*
X59369143Y-77257728D01*
X59168958Y-77174809D01*
X58988787Y-77054422D01*
X58835578Y-76901213D01*
X58791336Y-76835000D01*
X58715193Y-76721045D01*
X58715191Y-76721042D01*
X58632272Y-76520857D01*
X58590000Y-76308342D01*
X58590000Y-76091658D01*
X58632272Y-75879143D01*
X58715191Y-75678958D01*
X58715193Y-75678955D01*
X58835575Y-75498791D01*
X58835576Y-75498790D01*
X58835578Y-75498787D01*
X58988787Y-75345578D01*
X59168958Y-75225191D01*
X59369143Y-75142272D01*
X59581658Y-75100000D01*
X59798342Y-75100000D01*
X60010857Y-75142272D01*
X60010857Y-75142272D01*
G37*
G36*
X44770857Y-75142272D02*
X44971042Y-75225191D01*
X45151213Y-75345578D01*
X45304422Y-75498787D01*
X45304424Y-75498790D01*
X45304425Y-75498791D01*
X45424807Y-75678955D01*
X45424809Y-75678958D01*
X45507728Y-75879143D01*
X45550000Y-76091658D01*
X45550000Y-76308342D01*
X45507728Y-76520857D01*
X45424809Y-76721042D01*
X45424807Y-76721045D01*
X45348665Y-76835000D01*
X45304422Y-76901213D01*
X45151213Y-77054422D01*
X44971042Y-77174809D01*
X44770857Y-77257728D01*
X44558342Y-77300000D01*
X44341658Y-77300000D01*
X44129143Y-77257728D01*
X43928958Y-77174809D01*
X43748787Y-77054422D01*
X43595578Y-76901213D01*
X43551336Y-76835000D01*
X43475193Y-76721045D01*
X43475191Y-76721042D01*
X43392272Y-76520857D01*
X43350000Y-76308342D01*
X43350000Y-76091658D01*
X43392272Y-75879143D01*
X43475191Y-75678958D01*
X43475193Y-75678955D01*
X43595575Y-75498791D01*
X43595576Y-75498790D01*
X43595578Y-75498787D01*
X43748787Y-75345578D01*
X43928958Y-75225191D01*
X44129143Y-75142272D01*
X44341658Y-75100000D01*
X44558342Y-75100000D01*
X44770857Y-75142272D01*
X44770857Y-75142272D01*
G37*
G36*
X150838424Y-72602272D02*
X151180470Y-72670309D01*
X151608143Y-72847457D01*
X151993038Y-73104636D01*
X152320364Y-73431962D01*
X152577543Y-73816857D01*
X152754691Y-74244530D01*
X152845000Y-74698545D01*
X152845000Y-75161455D01*
X152754691Y-75615470D01*
X152577543Y-76043143D01*
X152320364Y-76428038D01*
X151993038Y-76755364D01*
X151608143Y-77012543D01*
X151180470Y-77189691D01*
X150839959Y-77257423D01*
X150726456Y-77280000D01*
X150263544Y-77280000D01*
X150150041Y-77257423D01*
X149809530Y-77189691D01*
X149381857Y-77012543D01*
X148996962Y-76755364D01*
X148669636Y-76428038D01*
X148412457Y-76043143D01*
X148235309Y-75615470D01*
X148145000Y-75161455D01*
X148145000Y-74698545D01*
X148235309Y-74244530D01*
X148412457Y-73816857D01*
X148669636Y-73431962D01*
X148996962Y-73104636D01*
X149381857Y-72847457D01*
X149809530Y-72670309D01*
X150151576Y-72602272D01*
X150263544Y-72580000D01*
X150726456Y-72580000D01*
X150838424Y-72602272D01*
X150838424Y-72602272D01*
G37*
G36*
X38443424Y-72602272D02*
X38785470Y-72670309D01*
X39213143Y-72847457D01*
X39598038Y-73104636D01*
X39925364Y-73431962D01*
X40182543Y-73816857D01*
X40359691Y-74244530D01*
X40450000Y-74698545D01*
X40450000Y-75161455D01*
X40359691Y-75615470D01*
X40182543Y-76043143D01*
X39925364Y-76428038D01*
X39598038Y-76755364D01*
X39213143Y-77012543D01*
X38785470Y-77189691D01*
X38444959Y-77257423D01*
X38331456Y-77280000D01*
X37868544Y-77280000D01*
X37755041Y-77257423D01*
X37414530Y-77189691D01*
X36986857Y-77012543D01*
X36601962Y-76755364D01*
X36274636Y-76428038D01*
X36017457Y-76043143D01*
X35840309Y-75615470D01*
X35750000Y-75161455D01*
X35750000Y-74698545D01*
X35840309Y-74244530D01*
X36017457Y-73816857D01*
X36274636Y-73431962D01*
X36601962Y-73104636D01*
X36986857Y-72847457D01*
X37414530Y-72670309D01*
X37756576Y-72602272D01*
X37868544Y-72580000D01*
X38331456Y-72580000D01*
X38443424Y-72602272D01*
X38443424Y-72602272D01*
G37*
G36*
X82870857Y-72602272D02*
X83071042Y-72685191D01*
X83071045Y-72685193D01*
X83203095Y-72773426D01*
X83251213Y-72805578D01*
X83404422Y-72958787D01*
X83404424Y-72958790D01*
X83404425Y-72958791D01*
X83501876Y-73104636D01*
X83524809Y-73138958D01*
X83607728Y-73339143D01*
X83650000Y-73551658D01*
X83650000Y-73768342D01*
X83607728Y-73980857D01*
X83524809Y-74181042D01*
X83524807Y-74181045D01*
X83419563Y-74338554D01*
X83404422Y-74361213D01*
X83251213Y-74514422D01*
X83251210Y-74514424D01*
X83251209Y-74514425D01*
X83121370Y-74601181D01*
X83071042Y-74634809D01*
X82870857Y-74717728D01*
X82658342Y-74760000D01*
X82441658Y-74760000D01*
X82229143Y-74717728D01*
X82028958Y-74634809D01*
X81978630Y-74601181D01*
X81848791Y-74514425D01*
X81848790Y-74514424D01*
X81848787Y-74514422D01*
X81695578Y-74361213D01*
X81680438Y-74338554D01*
X81575193Y-74181045D01*
X81575191Y-74181042D01*
X81492272Y-73980857D01*
X81450000Y-73768342D01*
X81450000Y-73551658D01*
X81492272Y-73339143D01*
X81575191Y-73138958D01*
X81598124Y-73104636D01*
X81695575Y-72958791D01*
X81695576Y-72958790D01*
X81695578Y-72958787D01*
X81848787Y-72805578D01*
X81896906Y-72773426D01*
X82028955Y-72685193D01*
X82028958Y-72685191D01*
X82229143Y-72602272D01*
X82441658Y-72560000D01*
X82658342Y-72560000D01*
X82870857Y-72602272D01*
X82870857Y-72602272D01*
G37*
G36*
X128590857Y-72602272D02*
X128791042Y-72685191D01*
X128791045Y-72685193D01*
X128923095Y-72773426D01*
X128971213Y-72805578D01*
X129124422Y-72958787D01*
X129124424Y-72958790D01*
X129124425Y-72958791D01*
X129221876Y-73104636D01*
X129244809Y-73138958D01*
X129327728Y-73339143D01*
X129370000Y-73551658D01*
X129370000Y-73768342D01*
X129327728Y-73980857D01*
X129244809Y-74181042D01*
X129244807Y-74181045D01*
X129139563Y-74338554D01*
X129124422Y-74361213D01*
X128971213Y-74514422D01*
X128971210Y-74514424D01*
X128971209Y-74514425D01*
X128841370Y-74601181D01*
X128791042Y-74634809D01*
X128590857Y-74717728D01*
X128378342Y-74760000D01*
X128161658Y-74760000D01*
X127949143Y-74717728D01*
X127748958Y-74634809D01*
X127698630Y-74601181D01*
X127568791Y-74514425D01*
X127568790Y-74514424D01*
X127568787Y-74514422D01*
X127415578Y-74361213D01*
X127400438Y-74338554D01*
X127295193Y-74181045D01*
X127295191Y-74181042D01*
X127212272Y-73980857D01*
X127170000Y-73768342D01*
X127170000Y-73551658D01*
X127212272Y-73339143D01*
X127295191Y-73138958D01*
X127318124Y-73104636D01*
X127415575Y-72958791D01*
X127415576Y-72958790D01*
X127415578Y-72958787D01*
X127568787Y-72805578D01*
X127616906Y-72773426D01*
X127748955Y-72685193D01*
X127748958Y-72685191D01*
X127949143Y-72602272D01*
X128161658Y-72560000D01*
X128378342Y-72560000D01*
X128590857Y-72602272D01*
X128590857Y-72602272D01*
G37*
G36*
X45550000Y-74760000D02*
X43350000Y-74760000D01*
X43350000Y-72560000D01*
X45550000Y-72560000D01*
X45550000Y-74760000D01*
X45550000Y-74760000D01*
G37*
G36*
X52390857Y-72602272D02*
X52591042Y-72685191D01*
X52591045Y-72685193D01*
X52723095Y-72773426D01*
X52771213Y-72805578D01*
X52924422Y-72958787D01*
X52924424Y-72958790D01*
X52924425Y-72958791D01*
X53021876Y-73104636D01*
X53044809Y-73138958D01*
X53127728Y-73339143D01*
X53170000Y-73551658D01*
X53170000Y-73768342D01*
X53127728Y-73980857D01*
X53044809Y-74181042D01*
X53044807Y-74181045D01*
X52939563Y-74338554D01*
X52924422Y-74361213D01*
X52771213Y-74514422D01*
X52771210Y-74514424D01*
X52771209Y-74514425D01*
X52641370Y-74601181D01*
X52591042Y-74634809D01*
X52390857Y-74717728D01*
X52178342Y-74760000D01*
X51961658Y-74760000D01*
X51749143Y-74717728D01*
X51548958Y-74634809D01*
X51498630Y-74601181D01*
X51368791Y-74514425D01*
X51368790Y-74514424D01*
X51368787Y-74514422D01*
X51215578Y-74361213D01*
X51200438Y-74338554D01*
X51095193Y-74181045D01*
X51095191Y-74181042D01*
X51012272Y-73980857D01*
X50970000Y-73768342D01*
X50970000Y-73551658D01*
X51012272Y-73339143D01*
X51095191Y-73138958D01*
X51118124Y-73104636D01*
X51215575Y-72958791D01*
X51215576Y-72958790D01*
X51215578Y-72958787D01*
X51368787Y-72805578D01*
X51416906Y-72773426D01*
X51548955Y-72685193D01*
X51548958Y-72685191D01*
X51749143Y-72602272D01*
X51961658Y-72560000D01*
X52178342Y-72560000D01*
X52390857Y-72602272D01*
X52390857Y-72602272D01*
G37*
G36*
X121750000Y-74760000D02*
X119550000Y-74760000D01*
X119550000Y-72560000D01*
X121750000Y-72560000D01*
X121750000Y-74760000D01*
X121750000Y-74760000D01*
G37*
G36*
X114130000Y-74760000D02*
X111930000Y-74760000D01*
X111930000Y-72560000D01*
X114130000Y-72560000D01*
X114130000Y-74760000D01*
X114130000Y-74760000D01*
G37*
G36*
X60790000Y-74760000D02*
X58590000Y-74760000D01*
X58590000Y-72560000D01*
X60790000Y-72560000D01*
X60790000Y-74760000D01*
X60790000Y-74760000D01*
G37*
G36*
X67630857Y-72602272D02*
X67831042Y-72685191D01*
X67831045Y-72685193D01*
X67963095Y-72773426D01*
X68011213Y-72805578D01*
X68164422Y-72958787D01*
X68164424Y-72958790D01*
X68164425Y-72958791D01*
X68261876Y-73104636D01*
X68284809Y-73138958D01*
X68367728Y-73339143D01*
X68410000Y-73551658D01*
X68410000Y-73768342D01*
X68367728Y-73980857D01*
X68284809Y-74181042D01*
X68284807Y-74181045D01*
X68179563Y-74338554D01*
X68164422Y-74361213D01*
X68011213Y-74514422D01*
X68011210Y-74514424D01*
X68011209Y-74514425D01*
X67881370Y-74601181D01*
X67831042Y-74634809D01*
X67630857Y-74717728D01*
X67418342Y-74760000D01*
X67201658Y-74760000D01*
X66989143Y-74717728D01*
X66788958Y-74634809D01*
X66738630Y-74601181D01*
X66608791Y-74514425D01*
X66608790Y-74514424D01*
X66608787Y-74514422D01*
X66455578Y-74361213D01*
X66440438Y-74338554D01*
X66335193Y-74181045D01*
X66335191Y-74181042D01*
X66252272Y-73980857D01*
X66210000Y-73768342D01*
X66210000Y-73551658D01*
X66252272Y-73339143D01*
X66335191Y-73138958D01*
X66358124Y-73104636D01*
X66455575Y-72958791D01*
X66455576Y-72958790D01*
X66455578Y-72958787D01*
X66608787Y-72805578D01*
X66656906Y-72773426D01*
X66788955Y-72685193D01*
X66788958Y-72685191D01*
X66989143Y-72602272D01*
X67201658Y-72560000D01*
X67418342Y-72560000D01*
X67630857Y-72602272D01*
X67630857Y-72602272D01*
G37*
G36*
X105730857Y-72602272D02*
X105931042Y-72685191D01*
X105931045Y-72685193D01*
X106063095Y-72773426D01*
X106111213Y-72805578D01*
X106264422Y-72958787D01*
X106264424Y-72958790D01*
X106264425Y-72958791D01*
X106361876Y-73104636D01*
X106384809Y-73138958D01*
X106467728Y-73339143D01*
X106510000Y-73551658D01*
X106510000Y-73768342D01*
X106467728Y-73980857D01*
X106384809Y-74181042D01*
X106384807Y-74181045D01*
X106279563Y-74338554D01*
X106264422Y-74361213D01*
X106111213Y-74514422D01*
X106111210Y-74514424D01*
X106111209Y-74514425D01*
X105981370Y-74601181D01*
X105931042Y-74634809D01*
X105730857Y-74717728D01*
X105518342Y-74760000D01*
X105301658Y-74760000D01*
X105089143Y-74717728D01*
X104888958Y-74634809D01*
X104838630Y-74601181D01*
X104708791Y-74514425D01*
X104708790Y-74514424D01*
X104708787Y-74514422D01*
X104555578Y-74361213D01*
X104540438Y-74338554D01*
X104435193Y-74181045D01*
X104435191Y-74181042D01*
X104352272Y-73980857D01*
X104310000Y-73768342D01*
X104310000Y-73551658D01*
X104352272Y-73339143D01*
X104435191Y-73138958D01*
X104458124Y-73104636D01*
X104555575Y-72958791D01*
X104555576Y-72958790D01*
X104555578Y-72958787D01*
X104708787Y-72805578D01*
X104756906Y-72773426D01*
X104888955Y-72685193D01*
X104888958Y-72685191D01*
X105089143Y-72602272D01*
X105301658Y-72560000D01*
X105518342Y-72560000D01*
X105730857Y-72602272D01*
X105730857Y-72602272D01*
G37*
G36*
X98110857Y-72602272D02*
X98311042Y-72685191D01*
X98311045Y-72685193D01*
X98443095Y-72773426D01*
X98491213Y-72805578D01*
X98644422Y-72958787D01*
X98644424Y-72958790D01*
X98644425Y-72958791D01*
X98741876Y-73104636D01*
X98764809Y-73138958D01*
X98847728Y-73339143D01*
X98890000Y-73551658D01*
X98890000Y-73768342D01*
X98847728Y-73980857D01*
X98764809Y-74181042D01*
X98764807Y-74181045D01*
X98659563Y-74338554D01*
X98644422Y-74361213D01*
X98491213Y-74514422D01*
X98491210Y-74514424D01*
X98491209Y-74514425D01*
X98361370Y-74601181D01*
X98311042Y-74634809D01*
X98110857Y-74717728D01*
X97898342Y-74760000D01*
X97681658Y-74760000D01*
X97469143Y-74717728D01*
X97268958Y-74634809D01*
X97218630Y-74601181D01*
X97088791Y-74514425D01*
X97088790Y-74514424D01*
X97088787Y-74514422D01*
X96935578Y-74361213D01*
X96920438Y-74338554D01*
X96815193Y-74181045D01*
X96815191Y-74181042D01*
X96732272Y-73980857D01*
X96690000Y-73768342D01*
X96690000Y-73551658D01*
X96732272Y-73339143D01*
X96815191Y-73138958D01*
X96838124Y-73104636D01*
X96935575Y-72958791D01*
X96935576Y-72958790D01*
X96935578Y-72958787D01*
X97088787Y-72805578D01*
X97136906Y-72773426D01*
X97268955Y-72685193D01*
X97268958Y-72685191D01*
X97469143Y-72602272D01*
X97681658Y-72560000D01*
X97898342Y-72560000D01*
X98110857Y-72602272D01*
X98110857Y-72602272D01*
G37*
G36*
X76030000Y-74760000D02*
X73830000Y-74760000D01*
X73830000Y-72560000D01*
X76030000Y-72560000D01*
X76030000Y-74760000D01*
X76030000Y-74760000D01*
G37*
G36*
X91270000Y-74760000D02*
X89070000Y-74760000D01*
X89070000Y-72560000D01*
X91270000Y-72560000D01*
X91270000Y-74760000D01*
X91270000Y-74760000D01*
G37*
G36*
X143177214Y-72718818D02*
X143357231Y-72773426D01*
X143523137Y-72862104D01*
X143668554Y-72981446D01*
X143787896Y-73126863D01*
X143876574Y-73292769D01*
X143931182Y-73472786D01*
X143949620Y-73660000D01*
X143931182Y-73847214D01*
X143876574Y-74027231D01*
X143787896Y-74193137D01*
X143668554Y-74338554D01*
X143523137Y-74457896D01*
X143357231Y-74546574D01*
X143177214Y-74601182D01*
X143036911Y-74615000D01*
X141443089Y-74615000D01*
X141302786Y-74601182D01*
X141122769Y-74546574D01*
X140956863Y-74457896D01*
X140811446Y-74338554D01*
X140692104Y-74193137D01*
X140603426Y-74027231D01*
X140548818Y-73847214D01*
X140530380Y-73660000D01*
X140548818Y-73472786D01*
X140603426Y-73292769D01*
X140692104Y-73126863D01*
X140811446Y-72981446D01*
X140956863Y-72862104D01*
X141122769Y-72773426D01*
X141302786Y-72718818D01*
X141443089Y-72705000D01*
X143036911Y-72705000D01*
X143177214Y-72718818D01*
X143177214Y-72718818D01*
G37*
G36*
X143177214Y-70178818D02*
X143357231Y-70233426D01*
X143523137Y-70322104D01*
X143668554Y-70441446D01*
X143787896Y-70586863D01*
X143876574Y-70752769D01*
X143931182Y-70932786D01*
X143949620Y-71120000D01*
X143931182Y-71307214D01*
X143876574Y-71487231D01*
X143787896Y-71653137D01*
X143668554Y-71798554D01*
X143523137Y-71917896D01*
X143357231Y-72006574D01*
X143177214Y-72061182D01*
X143036911Y-72075000D01*
X141443089Y-72075000D01*
X141302786Y-72061182D01*
X141122769Y-72006574D01*
X140956863Y-71917896D01*
X140811446Y-71798554D01*
X140692104Y-71653137D01*
X140603426Y-71487231D01*
X140548818Y-71307214D01*
X140530380Y-71120000D01*
X140548818Y-70932786D01*
X140603426Y-70752769D01*
X140692104Y-70586863D01*
X140811446Y-70441446D01*
X140956863Y-70322104D01*
X141122769Y-70233426D01*
X141302786Y-70178818D01*
X141443089Y-70165000D01*
X143036911Y-70165000D01*
X143177214Y-70178818D01*
X143177214Y-70178818D01*
G37*
M02*
