G04 #@! TF.GenerationSoftware,KiCad,Pcbnew,5.0.2-bee76a0~70~ubuntu18.04.1*
G04 #@! TF.CreationDate,2019-02-02T20:08:38+01:00*
G04 #@! TF.ProjectId,CHPLX12,4348504c-5831-4322-9e6b-696361645f70,rev?*
G04 #@! TF.SameCoordinates,Original*
G04 #@! TF.FileFunction,Legend,Top*
G04 #@! TF.FilePolarity,Positive*
%FSLAX46Y46*%
G04 Gerber Fmt 4.6, Leading zero omitted, Abs format (unit mm)*
G04 Created by KiCad (PCBNEW 5.0.2-bee76a0~70~ubuntu18.04.1) date 2019. febr. 2., szombat, 20:08:38 CET*
%MOMM*%
%LPD*%
G01*
G04 APERTURE LIST*
%ADD10C,0.300000*%
%ADD11C,0.120000*%
%ADD12C,0.150000*%
G04 APERTURE END LIST*
D10*
X36818571Y-81180714D02*
X36747142Y-81252142D01*
X36532857Y-81323571D01*
X36390000Y-81323571D01*
X36175714Y-81252142D01*
X36032857Y-81109285D01*
X35961428Y-80966428D01*
X35890000Y-80680714D01*
X35890000Y-80466428D01*
X35961428Y-80180714D01*
X36032857Y-80037857D01*
X36175714Y-79895000D01*
X36390000Y-79823571D01*
X36532857Y-79823571D01*
X36747142Y-79895000D01*
X36818571Y-79966428D01*
X37461428Y-81323571D02*
X37461428Y-79823571D01*
X37461428Y-80537857D02*
X38318571Y-80537857D01*
X38318571Y-81323571D02*
X38318571Y-79823571D01*
X39032857Y-81323571D02*
X39032857Y-79823571D01*
X39604285Y-79823571D01*
X39747142Y-79895000D01*
X39818571Y-79966428D01*
X39890000Y-80109285D01*
X39890000Y-80323571D01*
X39818571Y-80466428D01*
X39747142Y-80537857D01*
X39604285Y-80609285D01*
X39032857Y-80609285D01*
X41247142Y-81323571D02*
X40532857Y-81323571D01*
X40532857Y-79823571D01*
X41604285Y-79823571D02*
X42604285Y-81323571D01*
X42604285Y-79823571D02*
X41604285Y-81323571D01*
X43961428Y-81323571D02*
X43104285Y-81323571D01*
X43532857Y-81323571D02*
X43532857Y-79823571D01*
X43390000Y-80037857D01*
X43247142Y-80180714D01*
X43104285Y-80252142D01*
X44532857Y-79966428D02*
X44604285Y-79895000D01*
X44747142Y-79823571D01*
X45104285Y-79823571D01*
X45247142Y-79895000D01*
X45318571Y-79966428D01*
X45390000Y-80109285D01*
X45390000Y-80252142D01*
X45318571Y-80466428D01*
X44461428Y-81323571D01*
X45390000Y-81323571D01*
D11*
G04 #@! TO.C,R4*
X135620000Y-81080000D02*
X133620000Y-81080000D01*
X133620000Y-78940000D02*
X135620000Y-78940000D01*
G04 #@! TO.C,R1*
X133620000Y-69415000D02*
X135620000Y-69415000D01*
X135620000Y-71555000D02*
X133620000Y-71555000D01*
G04 #@! TO.C,R2*
X135620000Y-74730000D02*
X133620000Y-74730000D01*
X133620000Y-72590000D02*
X135620000Y-72590000D01*
G04 #@! TO.C,R3*
X133620000Y-75765000D02*
X135620000Y-75765000D01*
X135620000Y-77905000D02*
X133620000Y-77905000D01*
G04 #@! TO.C,J2*
X143510000Y-74930000D02*
X143510000Y-69850000D01*
X139070000Y-74930000D02*
X139070000Y-69850000D01*
X145410000Y-69850000D02*
X145410000Y-74930000D01*
X145410000Y-69850000D02*
X139070000Y-69850000D01*
X145410000Y-74930000D02*
X139070000Y-74930000D01*
G04 #@! TO.C,J1*
X145410000Y-80645000D02*
X139070000Y-80645000D01*
X145410000Y-75565000D02*
X139070000Y-75565000D01*
X145410000Y-75565000D02*
X145410000Y-80645000D01*
X139070000Y-80645000D02*
X139070000Y-75565000D01*
X143510000Y-80645000D02*
X143510000Y-75565000D01*
G04 #@! TO.C,D5*
X96711392Y-73257665D02*
G75*
G03X96554484Y-76490000I1078608J-1672335D01*
G01*
X98868608Y-73257665D02*
G75*
G02X99025516Y-76490000I-1078608J-1672335D01*
G01*
X96710163Y-73888870D02*
G75*
G03X96710000Y-75970961I1079837J-1041130D01*
G01*
X98869837Y-73888870D02*
G75*
G02X98870000Y-75970961I-1079837J-1041130D01*
G01*
X96554000Y-76490000D02*
X96710000Y-76490000D01*
X98870000Y-76490000D02*
X99026000Y-76490000D01*
G04 #@! TO.C,D1*
X127191392Y-73257665D02*
G75*
G03X127034484Y-76490000I1078608J-1672335D01*
G01*
X129348608Y-73257665D02*
G75*
G02X129505516Y-76490000I-1078608J-1672335D01*
G01*
X127190163Y-73888870D02*
G75*
G03X127190000Y-75970961I1079837J-1041130D01*
G01*
X129349837Y-73888870D02*
G75*
G02X129350000Y-75970961I-1079837J-1041130D01*
G01*
X127034000Y-76490000D02*
X127190000Y-76490000D01*
X129350000Y-76490000D02*
X129506000Y-76490000D01*
G04 #@! TO.C,D2*
X121728608Y-76602335D02*
G75*
G03X121885516Y-73370000I-1078608J1672335D01*
G01*
X119571392Y-76602335D02*
G75*
G02X119414484Y-73370000I1078608J1672335D01*
G01*
X121729837Y-75971130D02*
G75*
G03X121730000Y-73889039I-1079837J1041130D01*
G01*
X119570163Y-75971130D02*
G75*
G02X119570000Y-73889039I1079837J1041130D01*
G01*
X121886000Y-73370000D02*
X121730000Y-73370000D01*
X119570000Y-73370000D02*
X119414000Y-73370000D01*
G04 #@! TO.C,D3*
X114108608Y-76602335D02*
G75*
G03X114265516Y-73370000I-1078608J1672335D01*
G01*
X111951392Y-76602335D02*
G75*
G02X111794484Y-73370000I1078608J1672335D01*
G01*
X114109837Y-75971130D02*
G75*
G03X114110000Y-73889039I-1079837J1041130D01*
G01*
X111950163Y-75971130D02*
G75*
G02X111950000Y-73889039I1079837J1041130D01*
G01*
X114266000Y-73370000D02*
X114110000Y-73370000D01*
X111950000Y-73370000D02*
X111794000Y-73370000D01*
G04 #@! TO.C,D4*
X104331392Y-73257665D02*
G75*
G03X104174484Y-76490000I1078608J-1672335D01*
G01*
X106488608Y-73257665D02*
G75*
G02X106645516Y-76490000I-1078608J-1672335D01*
G01*
X104330163Y-73888870D02*
G75*
G03X104330000Y-75970961I1079837J-1041130D01*
G01*
X106489837Y-73888870D02*
G75*
G02X106490000Y-75970961I-1079837J-1041130D01*
G01*
X104174000Y-76490000D02*
X104330000Y-76490000D01*
X106490000Y-76490000D02*
X106646000Y-76490000D01*
G04 #@! TO.C,D6*
X91248608Y-76602335D02*
G75*
G03X91405516Y-73370000I-1078608J1672335D01*
G01*
X89091392Y-76602335D02*
G75*
G02X88934484Y-73370000I1078608J1672335D01*
G01*
X91249837Y-75971130D02*
G75*
G03X91250000Y-73889039I-1079837J1041130D01*
G01*
X89090163Y-75971130D02*
G75*
G02X89090000Y-73889039I1079837J1041130D01*
G01*
X91406000Y-73370000D02*
X91250000Y-73370000D01*
X89090000Y-73370000D02*
X88934000Y-73370000D01*
G04 #@! TO.C,D7*
X81471392Y-73257665D02*
G75*
G03X81314484Y-76490000I1078608J-1672335D01*
G01*
X83628608Y-73257665D02*
G75*
G02X83785516Y-76490000I-1078608J-1672335D01*
G01*
X81470163Y-73888870D02*
G75*
G03X81470000Y-75970961I1079837J-1041130D01*
G01*
X83629837Y-73888870D02*
G75*
G02X83630000Y-75970961I-1079837J-1041130D01*
G01*
X81314000Y-76490000D02*
X81470000Y-76490000D01*
X83630000Y-76490000D02*
X83786000Y-76490000D01*
G04 #@! TO.C,D8*
X76008608Y-76602335D02*
G75*
G03X76165516Y-73370000I-1078608J1672335D01*
G01*
X73851392Y-76602335D02*
G75*
G02X73694484Y-73370000I1078608J1672335D01*
G01*
X76009837Y-75971130D02*
G75*
G03X76010000Y-73889039I-1079837J1041130D01*
G01*
X73850163Y-75971130D02*
G75*
G02X73850000Y-73889039I1079837J1041130D01*
G01*
X76166000Y-73370000D02*
X76010000Y-73370000D01*
X73850000Y-73370000D02*
X73694000Y-73370000D01*
G04 #@! TO.C,D9*
X66231392Y-73257665D02*
G75*
G03X66074484Y-76490000I1078608J-1672335D01*
G01*
X68388608Y-73257665D02*
G75*
G02X68545516Y-76490000I-1078608J-1672335D01*
G01*
X66230163Y-73888870D02*
G75*
G03X66230000Y-75970961I1079837J-1041130D01*
G01*
X68389837Y-73888870D02*
G75*
G02X68390000Y-75970961I-1079837J-1041130D01*
G01*
X66074000Y-76490000D02*
X66230000Y-76490000D01*
X68390000Y-76490000D02*
X68546000Y-76490000D01*
G04 #@! TO.C,D10*
X60768608Y-76602335D02*
G75*
G03X60925516Y-73370000I-1078608J1672335D01*
G01*
X58611392Y-76602335D02*
G75*
G02X58454484Y-73370000I1078608J1672335D01*
G01*
X60769837Y-75971130D02*
G75*
G03X60770000Y-73889039I-1079837J1041130D01*
G01*
X58610163Y-75971130D02*
G75*
G02X58610000Y-73889039I1079837J1041130D01*
G01*
X60926000Y-73370000D02*
X60770000Y-73370000D01*
X58610000Y-73370000D02*
X58454000Y-73370000D01*
G04 #@! TO.C,D11*
X50991392Y-73257665D02*
G75*
G03X50834484Y-76490000I1078608J-1672335D01*
G01*
X53148608Y-73257665D02*
G75*
G02X53305516Y-76490000I-1078608J-1672335D01*
G01*
X50990163Y-73888870D02*
G75*
G03X50990000Y-75970961I1079837J-1041130D01*
G01*
X53149837Y-73888870D02*
G75*
G02X53150000Y-75970961I-1079837J-1041130D01*
G01*
X50834000Y-76490000D02*
X50990000Y-76490000D01*
X53150000Y-76490000D02*
X53306000Y-76490000D01*
G04 #@! TO.C,D12*
X45528608Y-76602335D02*
G75*
G03X45685516Y-73370000I-1078608J1672335D01*
G01*
X43371392Y-76602335D02*
G75*
G02X43214484Y-73370000I1078608J1672335D01*
G01*
X45529837Y-75971130D02*
G75*
G03X45530000Y-73889039I-1079837J1041130D01*
G01*
X43370163Y-75971130D02*
G75*
G02X43370000Y-73889039I1079837J1041130D01*
G01*
X45686000Y-73370000D02*
X45530000Y-73370000D01*
X43370000Y-73370000D02*
X43214000Y-73370000D01*
G04 #@! TO.C,R4*
D12*
X134453333Y-78612380D02*
X134120000Y-78136190D01*
X133881904Y-78612380D02*
X133881904Y-77612380D01*
X134262857Y-77612380D01*
X134358095Y-77660000D01*
X134405714Y-77707619D01*
X134453333Y-77802857D01*
X134453333Y-77945714D01*
X134405714Y-78040952D01*
X134358095Y-78088571D01*
X134262857Y-78136190D01*
X133881904Y-78136190D01*
X135310476Y-77945714D02*
X135310476Y-78612380D01*
X135072380Y-77564761D02*
X134834285Y-78279047D01*
X135453333Y-78279047D01*
G04 #@! TO.C,R1*
X134453333Y-69087380D02*
X134120000Y-68611190D01*
X133881904Y-69087380D02*
X133881904Y-68087380D01*
X134262857Y-68087380D01*
X134358095Y-68135000D01*
X134405714Y-68182619D01*
X134453333Y-68277857D01*
X134453333Y-68420714D01*
X134405714Y-68515952D01*
X134358095Y-68563571D01*
X134262857Y-68611190D01*
X133881904Y-68611190D01*
X135405714Y-69087380D02*
X134834285Y-69087380D01*
X135120000Y-69087380D02*
X135120000Y-68087380D01*
X135024761Y-68230238D01*
X134929523Y-68325476D01*
X134834285Y-68373095D01*
G04 #@! TO.C,R2*
X134453333Y-72262380D02*
X134120000Y-71786190D01*
X133881904Y-72262380D02*
X133881904Y-71262380D01*
X134262857Y-71262380D01*
X134358095Y-71310000D01*
X134405714Y-71357619D01*
X134453333Y-71452857D01*
X134453333Y-71595714D01*
X134405714Y-71690952D01*
X134358095Y-71738571D01*
X134262857Y-71786190D01*
X133881904Y-71786190D01*
X134834285Y-71357619D02*
X134881904Y-71310000D01*
X134977142Y-71262380D01*
X135215238Y-71262380D01*
X135310476Y-71310000D01*
X135358095Y-71357619D01*
X135405714Y-71452857D01*
X135405714Y-71548095D01*
X135358095Y-71690952D01*
X134786666Y-72262380D01*
X135405714Y-72262380D01*
G04 #@! TO.C,J2*
X145592380Y-72723333D02*
X146306666Y-72723333D01*
X146449523Y-72770952D01*
X146544761Y-72866190D01*
X146592380Y-73009047D01*
X146592380Y-73104285D01*
X145687619Y-72294761D02*
X145640000Y-72247142D01*
X145592380Y-72151904D01*
X145592380Y-71913809D01*
X145640000Y-71818571D01*
X145687619Y-71770952D01*
X145782857Y-71723333D01*
X145878095Y-71723333D01*
X146020952Y-71770952D01*
X146592380Y-72342380D01*
X146592380Y-71723333D01*
G04 #@! TO.C,J1*
X145592380Y-78438333D02*
X146306666Y-78438333D01*
X146449523Y-78485952D01*
X146544761Y-78581190D01*
X146592380Y-78724047D01*
X146592380Y-78819285D01*
X146592380Y-77438333D02*
X146592380Y-78009761D01*
X146592380Y-77724047D02*
X145592380Y-77724047D01*
X145735238Y-77819285D01*
X145830476Y-77914523D01*
X145878095Y-78009761D01*
G04 #@! TO.C,D5*
X95282380Y-75668095D02*
X94282380Y-75668095D01*
X94282380Y-75430000D01*
X94330000Y-75287142D01*
X94425238Y-75191904D01*
X94520476Y-75144285D01*
X94710952Y-75096666D01*
X94853809Y-75096666D01*
X95044285Y-75144285D01*
X95139523Y-75191904D01*
X95234761Y-75287142D01*
X95282380Y-75430000D01*
X95282380Y-75668095D01*
X94282380Y-74191904D02*
X94282380Y-74668095D01*
X94758571Y-74715714D01*
X94710952Y-74668095D01*
X94663333Y-74572857D01*
X94663333Y-74334761D01*
X94710952Y-74239523D01*
X94758571Y-74191904D01*
X94853809Y-74144285D01*
X95091904Y-74144285D01*
X95187142Y-74191904D01*
X95234761Y-74239523D01*
X95282380Y-74334761D01*
X95282380Y-74572857D01*
X95234761Y-74668095D01*
X95187142Y-74715714D01*
G04 #@! TO.C,D1*
X125762380Y-75668095D02*
X124762380Y-75668095D01*
X124762380Y-75430000D01*
X124810000Y-75287142D01*
X124905238Y-75191904D01*
X125000476Y-75144285D01*
X125190952Y-75096666D01*
X125333809Y-75096666D01*
X125524285Y-75144285D01*
X125619523Y-75191904D01*
X125714761Y-75287142D01*
X125762380Y-75430000D01*
X125762380Y-75668095D01*
X125762380Y-74144285D02*
X125762380Y-74715714D01*
X125762380Y-74430000D02*
X124762380Y-74430000D01*
X124905238Y-74525238D01*
X125000476Y-74620476D01*
X125048095Y-74715714D01*
G04 #@! TO.C,D2*
X124062380Y-75668095D02*
X123062380Y-75668095D01*
X123062380Y-75430000D01*
X123110000Y-75287142D01*
X123205238Y-75191904D01*
X123300476Y-75144285D01*
X123490952Y-75096666D01*
X123633809Y-75096666D01*
X123824285Y-75144285D01*
X123919523Y-75191904D01*
X124014761Y-75287142D01*
X124062380Y-75430000D01*
X124062380Y-75668095D01*
X123157619Y-74715714D02*
X123110000Y-74668095D01*
X123062380Y-74572857D01*
X123062380Y-74334761D01*
X123110000Y-74239523D01*
X123157619Y-74191904D01*
X123252857Y-74144285D01*
X123348095Y-74144285D01*
X123490952Y-74191904D01*
X124062380Y-74763333D01*
X124062380Y-74144285D01*
G04 #@! TO.C,D3*
X116442380Y-75668095D02*
X115442380Y-75668095D01*
X115442380Y-75430000D01*
X115490000Y-75287142D01*
X115585238Y-75191904D01*
X115680476Y-75144285D01*
X115870952Y-75096666D01*
X116013809Y-75096666D01*
X116204285Y-75144285D01*
X116299523Y-75191904D01*
X116394761Y-75287142D01*
X116442380Y-75430000D01*
X116442380Y-75668095D01*
X115442380Y-74763333D02*
X115442380Y-74144285D01*
X115823333Y-74477619D01*
X115823333Y-74334761D01*
X115870952Y-74239523D01*
X115918571Y-74191904D01*
X116013809Y-74144285D01*
X116251904Y-74144285D01*
X116347142Y-74191904D01*
X116394761Y-74239523D01*
X116442380Y-74334761D01*
X116442380Y-74620476D01*
X116394761Y-74715714D01*
X116347142Y-74763333D01*
G04 #@! TO.C,D4*
X102902380Y-75668095D02*
X101902380Y-75668095D01*
X101902380Y-75430000D01*
X101950000Y-75287142D01*
X102045238Y-75191904D01*
X102140476Y-75144285D01*
X102330952Y-75096666D01*
X102473809Y-75096666D01*
X102664285Y-75144285D01*
X102759523Y-75191904D01*
X102854761Y-75287142D01*
X102902380Y-75430000D01*
X102902380Y-75668095D01*
X102235714Y-74239523D02*
X102902380Y-74239523D01*
X101854761Y-74477619D02*
X102569047Y-74715714D01*
X102569047Y-74096666D01*
G04 #@! TO.C,D6*
X93582380Y-75668095D02*
X92582380Y-75668095D01*
X92582380Y-75430000D01*
X92630000Y-75287142D01*
X92725238Y-75191904D01*
X92820476Y-75144285D01*
X93010952Y-75096666D01*
X93153809Y-75096666D01*
X93344285Y-75144285D01*
X93439523Y-75191904D01*
X93534761Y-75287142D01*
X93582380Y-75430000D01*
X93582380Y-75668095D01*
X92582380Y-74239523D02*
X92582380Y-74430000D01*
X92630000Y-74525238D01*
X92677619Y-74572857D01*
X92820476Y-74668095D01*
X93010952Y-74715714D01*
X93391904Y-74715714D01*
X93487142Y-74668095D01*
X93534761Y-74620476D01*
X93582380Y-74525238D01*
X93582380Y-74334761D01*
X93534761Y-74239523D01*
X93487142Y-74191904D01*
X93391904Y-74144285D01*
X93153809Y-74144285D01*
X93058571Y-74191904D01*
X93010952Y-74239523D01*
X92963333Y-74334761D01*
X92963333Y-74525238D01*
X93010952Y-74620476D01*
X93058571Y-74668095D01*
X93153809Y-74715714D01*
G04 #@! TO.C,D7*
X80042380Y-75668095D02*
X79042380Y-75668095D01*
X79042380Y-75430000D01*
X79090000Y-75287142D01*
X79185238Y-75191904D01*
X79280476Y-75144285D01*
X79470952Y-75096666D01*
X79613809Y-75096666D01*
X79804285Y-75144285D01*
X79899523Y-75191904D01*
X79994761Y-75287142D01*
X80042380Y-75430000D01*
X80042380Y-75668095D01*
X79042380Y-74763333D02*
X79042380Y-74096666D01*
X80042380Y-74525238D01*
G04 #@! TO.C,D8*
X78342380Y-75668095D02*
X77342380Y-75668095D01*
X77342380Y-75430000D01*
X77390000Y-75287142D01*
X77485238Y-75191904D01*
X77580476Y-75144285D01*
X77770952Y-75096666D01*
X77913809Y-75096666D01*
X78104285Y-75144285D01*
X78199523Y-75191904D01*
X78294761Y-75287142D01*
X78342380Y-75430000D01*
X78342380Y-75668095D01*
X77770952Y-74525238D02*
X77723333Y-74620476D01*
X77675714Y-74668095D01*
X77580476Y-74715714D01*
X77532857Y-74715714D01*
X77437619Y-74668095D01*
X77390000Y-74620476D01*
X77342380Y-74525238D01*
X77342380Y-74334761D01*
X77390000Y-74239523D01*
X77437619Y-74191904D01*
X77532857Y-74144285D01*
X77580476Y-74144285D01*
X77675714Y-74191904D01*
X77723333Y-74239523D01*
X77770952Y-74334761D01*
X77770952Y-74525238D01*
X77818571Y-74620476D01*
X77866190Y-74668095D01*
X77961428Y-74715714D01*
X78151904Y-74715714D01*
X78247142Y-74668095D01*
X78294761Y-74620476D01*
X78342380Y-74525238D01*
X78342380Y-74334761D01*
X78294761Y-74239523D01*
X78247142Y-74191904D01*
X78151904Y-74144285D01*
X77961428Y-74144285D01*
X77866190Y-74191904D01*
X77818571Y-74239523D01*
X77770952Y-74334761D01*
G04 #@! TO.C,D9*
X64802380Y-75668095D02*
X63802380Y-75668095D01*
X63802380Y-75430000D01*
X63850000Y-75287142D01*
X63945238Y-75191904D01*
X64040476Y-75144285D01*
X64230952Y-75096666D01*
X64373809Y-75096666D01*
X64564285Y-75144285D01*
X64659523Y-75191904D01*
X64754761Y-75287142D01*
X64802380Y-75430000D01*
X64802380Y-75668095D01*
X64802380Y-74620476D02*
X64802380Y-74430000D01*
X64754761Y-74334761D01*
X64707142Y-74287142D01*
X64564285Y-74191904D01*
X64373809Y-74144285D01*
X63992857Y-74144285D01*
X63897619Y-74191904D01*
X63850000Y-74239523D01*
X63802380Y-74334761D01*
X63802380Y-74525238D01*
X63850000Y-74620476D01*
X63897619Y-74668095D01*
X63992857Y-74715714D01*
X64230952Y-74715714D01*
X64326190Y-74668095D01*
X64373809Y-74620476D01*
X64421428Y-74525238D01*
X64421428Y-74334761D01*
X64373809Y-74239523D01*
X64326190Y-74191904D01*
X64230952Y-74144285D01*
G04 #@! TO.C,D10*
X63102380Y-76144285D02*
X62102380Y-76144285D01*
X62102380Y-75906190D01*
X62150000Y-75763333D01*
X62245238Y-75668095D01*
X62340476Y-75620476D01*
X62530952Y-75572857D01*
X62673809Y-75572857D01*
X62864285Y-75620476D01*
X62959523Y-75668095D01*
X63054761Y-75763333D01*
X63102380Y-75906190D01*
X63102380Y-76144285D01*
X63102380Y-74620476D02*
X63102380Y-75191904D01*
X63102380Y-74906190D02*
X62102380Y-74906190D01*
X62245238Y-75001428D01*
X62340476Y-75096666D01*
X62388095Y-75191904D01*
X62102380Y-74001428D02*
X62102380Y-73906190D01*
X62150000Y-73810952D01*
X62197619Y-73763333D01*
X62292857Y-73715714D01*
X62483333Y-73668095D01*
X62721428Y-73668095D01*
X62911904Y-73715714D01*
X63007142Y-73763333D01*
X63054761Y-73810952D01*
X63102380Y-73906190D01*
X63102380Y-74001428D01*
X63054761Y-74096666D01*
X63007142Y-74144285D01*
X62911904Y-74191904D01*
X62721428Y-74239523D01*
X62483333Y-74239523D01*
X62292857Y-74191904D01*
X62197619Y-74144285D01*
X62150000Y-74096666D01*
X62102380Y-74001428D01*
G04 #@! TO.C,D11*
X49562380Y-76144285D02*
X48562380Y-76144285D01*
X48562380Y-75906190D01*
X48610000Y-75763333D01*
X48705238Y-75668095D01*
X48800476Y-75620476D01*
X48990952Y-75572857D01*
X49133809Y-75572857D01*
X49324285Y-75620476D01*
X49419523Y-75668095D01*
X49514761Y-75763333D01*
X49562380Y-75906190D01*
X49562380Y-76144285D01*
X49562380Y-74620476D02*
X49562380Y-75191904D01*
X49562380Y-74906190D02*
X48562380Y-74906190D01*
X48705238Y-75001428D01*
X48800476Y-75096666D01*
X48848095Y-75191904D01*
X49562380Y-73668095D02*
X49562380Y-74239523D01*
X49562380Y-73953809D02*
X48562380Y-73953809D01*
X48705238Y-74049047D01*
X48800476Y-74144285D01*
X48848095Y-74239523D01*
G04 #@! TO.C,D12*
X47862380Y-76144285D02*
X46862380Y-76144285D01*
X46862380Y-75906190D01*
X46910000Y-75763333D01*
X47005238Y-75668095D01*
X47100476Y-75620476D01*
X47290952Y-75572857D01*
X47433809Y-75572857D01*
X47624285Y-75620476D01*
X47719523Y-75668095D01*
X47814761Y-75763333D01*
X47862380Y-75906190D01*
X47862380Y-76144285D01*
X47862380Y-74620476D02*
X47862380Y-75191904D01*
X47862380Y-74906190D02*
X46862380Y-74906190D01*
X47005238Y-75001428D01*
X47100476Y-75096666D01*
X47148095Y-75191904D01*
X46957619Y-74239523D02*
X46910000Y-74191904D01*
X46862380Y-74096666D01*
X46862380Y-73858571D01*
X46910000Y-73763333D01*
X46957619Y-73715714D01*
X47052857Y-73668095D01*
X47148095Y-73668095D01*
X47290952Y-73715714D01*
X47862380Y-74287142D01*
X47862380Y-73668095D01*
G04 #@! TO.C,*
G04 #@! TD*
M02*
