M48
METRIC,TZ
T1C0.900
T2C1.000
T3C4.300
%
G90
G05
T1
X120650Y-73660
X120650Y-76200
X105410Y-73660
X105410Y-76200
X97790Y-73660
X97790Y-76200
X113030Y-73660
X113030Y-76200
X59690Y-73660
X59690Y-76200
X82550Y-73660
X82550Y-76200
X52070Y-73660
X52070Y-76200
X44450Y-73660
X44450Y-76200
X74930Y-73660
X74930Y-76200
X128270Y-73660
X128270Y-76200
X67310Y-73660
X67310Y-76200
X90170Y-73660
X90170Y-76200
T2
X142240Y-71120
X142240Y-73660
X142240Y-76835
X142240Y-79375
T3
X38100Y-74930
X150495Y-74930
T0
M30
